# xmcd
#
# Track frame offsets:
#	150
#	16408
#	38006
#	60154
#	81861
#	102060
#	121054
#	142906
#	163615
#	183152
#	205326
#	226706
#
# Disc length: 3313 seconds
#
# Revision: 2
# Processed by: cddbd v1.5.2PL0 Copyright (c) Steve Scherf et al.
# Submitted via: EasyCDDAExtractor 16.0.9.1
#
DISCID=840cef0c
DTITLE=Luis Enrique - Timbalaye
DYEAR=1999
DGENRE=Latin
TTITLE0=Mirame
TTITLE1=Regresa
TTITLE2=Llorandote
TTITLE3=Asi Llegaste Tu
TTITLE4=Te Tuve Y Te Perdi
TTITLE5=Timbalaye
TTITLE6=Amuleto Secreto
TTITLE7=De Que Nos Sirve Este Amor
TTITLE8=Mañana
TTITLE9=Angel Guardian
TTITLE10=Y Soñar
TTITLE11=Calles Del Alma
EXTD=
EXTT0=
EXTT1=
EXTT2=
EXTT3=
EXTT4=
EXTT5=
EXTT6=
EXTT7=
EXTT8=
EXTT9=
EXTT10=
EXTT11=
PLAYORDER=
